/* XPM */
static const char *close.xpm_xpm[] = {
/* width height num_colors chars_per_pixel */
"    16    16      256            2",
/* colors */
"`` c None",
"`. c #db3322",
"`# c #d63527",
"`a c #de764e",
"`b c #df7b4f",
"`c c #ffffff",
"`d c #df8153",
"`e c #df8453",
"`f c #e17959",
"`g c #e29064",
"`h c #e58f75",
"`i c #de7a4e",
"`j c #de6f48",
"`k c #de754c",
"`l c #e2835e",
"`m c #e2875e",
"`n c #df7f4f",
"`o c #df8051",
"`p c #eba995",
"`q c #ecb298",
"`r c #ecb39a",
"`s c #ecb49c",
"`t c #f9e7e3",
"`u c #fae9e4",
"`v c #fae9e6",
"`w c #d73727",
"`x c #e28d63",
"`y c #e28e64",
"`z c #e07356",
"`A c #faeae6",
"`B c #e28f66",
"`C c #e28b60",
"`D c #e28a63",
"`E c #faebe4",
"`F c #faeae4",
"`G c #faede8",
"`H c #e69176",
"`I c #df6753",
"`J c #e3876a",
"`K c #e17765",
"`L c #e49172",
"`M c #dd5f4a",
"`N c #e07858",
"`O c #e1765d",
"`P c #de6652",
"`Q c #e69376",
"`R c #e4856f",
"`S c #e28266",
"`T c #e48d6e",
"`U c #e6947a",
"`V c #e6987a",
"`W c #e7957f",
"`X c #e49273",
"`Y c #e49673",
"`Z c #e58d72",
"`0 c #000000",
"`1 c #000000",
"`2 c #000000",
"`3 c #000000",
"`4 c #000000",
"`5 c #000000",
"`6 c #000000",
"`7 c #000000",
"`8 c #000000",
".` c #000000",
".. c #000000",
".# c #000000",
".a c #000000",
".b c #000000",
".c c #000000",
".d c #000000",
".e c #000000",
".f c #000000",
".g c #000000",
".h c #000000",
".i c #000000",
".j c #000000",
".k c #000000",
".l c #000000",
".m c #000000",
".n c #000000",
".o c #000000",
".p c #000000",
".q c #000000",
".r c #000000",
".s c #000000",
".t c #000000",
".u c #000000",
".v c #000000",
".w c #000000",
".x c #000000",
".y c #000000",
".z c #000000",
".A c #000000",
".B c #000000",
".C c #000000",
".D c #000000",
".E c #000000",
".F c #000000",
".G c #000000",
".H c #000000",
".I c #000000",
".J c #000000",
".K c #000000",
".L c #000000",
".M c #000000",
".N c #000000",
".O c #000000",
".P c #000000",
".Q c #000000",
".R c #000000",
".S c #000000",
".T c #000000",
".U c #000000",
".V c #000000",
".W c #000000",
".X c #000000",
".Y c #000000",
".Z c #000000",
".0 c #000000",
".1 c #000000",
".2 c #000000",
".3 c #000000",
".4 c #000000",
".5 c #000000",
".6 c #000000",
".7 c #000000",
".8 c #000000",
"#` c #000000",
"#. c #000000",
"## c #000000",
"#a c #000000",
"#b c #000000",
"#c c #000000",
"#d c #000000",
"#e c #000000",
"#f c #000000",
"#g c #000000",
"#h c #000000",
"#i c #000000",
"#j c #000000",
"#k c #000000",
"#l c #000000",
"#m c #000000",
"#n c #000000",
"#o c #000000",
"#p c #000000",
"#q c #000000",
"#r c #000000",
"#s c #000000",
"#t c #000000",
"#u c #000000",
"#v c #000000",
"#w c #000000",
"#x c #000000",
"#y c #000000",
"#z c #000000",
"#A c #000000",
"#B c #000000",
"#C c #000000",
"#D c #000000",
"#E c #000000",
"#F c #000000",
"#G c #000000",
"#H c #000000",
"#I c #000000",
"#J c #000000",
"#K c #000000",
"#L c #000000",
"#M c #000000",
"#N c #000000",
"#O c #000000",
"#P c #000000",
"#Q c #000000",
"#R c #000000",
"#S c #000000",
"#T c #000000",
"#U c #000000",
"#V c #000000",
"#W c #000000",
"#X c #000000",
"#Y c #000000",
"#Z c #000000",
"#0 c #000000",
"#1 c #000000",
"#2 c #000000",
"#3 c #000000",
"#4 c #000000",
"#5 c #000000",
"#6 c #000000",
"#7 c #000000",
"#8 c #000000",
"a` c #000000",
"a. c #000000",
"a# c #000000",
"aa c #000000",
"ab c #000000",
"ac c #000000",
"ad c #000000",
"ae c #000000",
"af c #000000",
"ag c #000000",
"ah c #000000",
"ai c #000000",
"aj c #000000",
"ak c #000000",
"al c #000000",
"am c #000000",
"an c #000000",
"ao c #000000",
"ap c #000000",
"aq c #000000",
"ar c #000000",
"as c #000000",
"at c #000000",
"au c #000000",
"av c #000000",
"aw c #000000",
"ax c #000000",
"ay c #000000",
"az c #000000",
"aA c #000000",
"aB c #000000",
"aC c #000000",
"aD c #000000",
"aE c #000000",
"aF c #000000",
"aG c #000000",
"aH c #000000",
"aI c #000000",
"aJ c #000000",
"aK c #000000",
"aL c #000000",
"aM c #000000",
"aN c #000000",
"aO c #000000",
"aP c #000000",
"aQ c #000000",
"aR c #000000",
"aS c #000000",
"aT c #000000",
"aU c #000000",
"aV c #000000",
"aW c #000000",
"aX c #000000",
"aY c #000000",
"aZ c #000000",
"a0 c #000000",
"a1 c #000000",
"a2 c #000000",
"a3 c #000000",
"a4 c #000000",
"a5 c #000000",
"a6 c #000000",
"a7 c #000000",
"a8 c #000000",
/* pixels */
"````````````````````````````````",
"`````.`#`w`w`w`w`w`w`w`w`#`.````",
"```.`K`R`h`h`H`H`H`H`h`h`O`P`.``",
"```#`W`j`k`a`a`i`i`a`a`k`j`S`#``",
"```w`Q`a`b`q`C`d`d`C`q`b`a`T`w``",
"```w`V`b`r`c`E`g`g`E`c`r`b`L`w``",
"```w`V`n`l`u`c`G`G`c`u`l`n`X`w``",
"```w`V`o`b`f`A`c`c`A`f`b`o`X`w``",
"```w`V`d`e`m`A`c`c`A`m`e`d`Y`w``",
"```w`V`d`g`F`c`v`v`c`F`g`d`Y`w``",
"```w`V`o`s`c`t`z`z`t`c`s`o`X`w``",
"```w`V`n`a`p`f`i`i`f`p`a`n`X`w``",
"```#`Z`b`b`a`b`e`e`b`a`b`b`U`#``",
"```.`I`N`D`x`y`B`B`y`x`D`J`M`.``",
"`````.`#`w`w`w`w`w`w`w`w`#`.````",
"````````````````````````````````"
};
