/* XPM */
static const char *Q2_MakeLitStr[] = {
/* width height num_colors chars_per_pixel */
"    16    15       16            1",
/* colors */
"` c #000000",
". c #800000",
"# c #008000",
"a c #808000",
"b c #000080",
"c c #800080",
"d c #008080",
"e c None",
"f c #808080",
"g c #ff0000",
"h c #00ff00",
"i c #ffff00",
"j c #0000ff",
"k c #ff00ff",
"l c #00ffff",
"m c #ffffff",
/* pixels */
"eeeeeeeeeeeeeeee",
"eeeeeeeeeeeeeeee",
"eeeeee`eeeeeeeee",
"eeeeee`eeeeeeeee",
"eeeeee`eeeeeeeee",
"ef``fe```fef``fe",
"eeee`e`ff`e`fe`e",
"ef```e`ee`e`ee`e",
"e`fe`e`ee`e`eeee",
"e`fe`e`ff`e`fe`e",
"ef``fef``fef``fe",
"eeeeeeeeeeeeeeee",
"eeeeeeeeeeeeeeee",
"eeeeeeeeeeeeeeee",
"eeeeeeeeeeeeeeee"
};
