/* XPM */
static const char * Q2_MakeGUI_xpm[] = {
"16 15 5 1",
" 	c None",
".	c #FFFF00",
"+	c #000000",
"@	c #FFFFFF",
"#	c #FF0000",
".   ...++++++++ ",
"..... ++@@@@@@++",
" ...  +@++++++@+",
".. ...+@@@@@@@@+",
"..##.####+++++@+",
".#@@@@@@##@@@@@+",
"#@++++++@#+++@@+",
"#@@@@@@@@#@@@++ ",
"#@++++++@#++++  ",
"#@@@@@@@@#++++  ",
"#@+++++@@#++++++",
" ##@@@@##       ",
"  ######        ",
"  ######        ",
"##########      "};
