/* XPM */
static char *Q3_NewVT[] = {
/* width height num_colors chars_per_pixel */
"    16    15       16            1",
/* colors */
"` c #000000",
". c #800000",
"# c #008000",
"a c #808000",
"b c #000080",
"c c #800080",
"d c #008080",
"e c None",
"f c #808080",
"g c #ff0000",
"h c #00ff00",
"i c #ffff00",
"j c #0000ff",
"k c #ff00ff",
"l c #00ffff",
"m c #ffffff",
/* pixels */
"iieeieeiieeeeeee",
"iiieieiiieeeeeee",
"eiiiiiiee```````",
"``eiii``````````",
"``iiii``eee``eee",
"e``ei``eeee``eee",
"i``ei``iiee``eee",
"i``ei``iiee``eee",
"ee`ee`eeeee``eee",
"ee````eeeee``eee",
"ee````eeeee``eee",
"ee````eeeee``eee",
"eee``eeeeee``eee",
"eee``eeeeee``eee",
"eeeeeeeeeeeeeeee"
};
