/* XPM */
static const char * Q4_DebugStop_xpm[] = {
"16 16 6 1",
" 	c None",
".	c #0000FF",
"+	c #800000",
"@	c #FFFFFF",
"#	c #C0C0C0",
"$	c #000080",
"...........  ++.",
".@@@@@@@@@..++. ",
".@@@@@++@@.++..#",
".@...@..++++.$  ",
".@@@@@@@.+++.$  ",
".@@.....+++++$  ",
".@@@@@@.++..++  ",
".@@....++.. ++  ",
".@@@@@.++..  $+ ",
".@@@..++...  $  ",
".@@@@@+..@.  $  ",
".@@......@.$$$$$",
".@@@@@@@@@. $$$ ",
".@@@@@@@@@.  $  ",
"...........     ",
"                "};
