/* XPM */
static const char * Q4_Debug_xpm[] = {
"16 16 4 1",
" 	c None",
".	c #0000FF",
"+	c #FFFFFF",
"@	c #000080",
"...........     ",
".+++++++++.     ",
".+++++++++.  @  ",
".+...+++++.  @  ",
".+++++++++.  @  ",
".++......+.  @  ",
".+++++++++.  @  ",
".++......+.  @  ",
".+++++++++.  @  ",
".+++....++.  @  ",
".+++++++++.  @  ",
".++......+.@@@@@",
".+++++++++. @@@ ",
".+++++++++.  @  ",
"...........     ",
"                "};
