/* XPM */
static char *Q4_Expand[] = {
/* width height num_colors chars_per_pixel */
"    16    15       16            1",
/* colors */
"` c #000000",
". c #800000",
"# c #008000",
"a c #808000",
"b c #000080",
"c c #800080",
"d c #008080",
"e c None",
"f c #808080",
"g c #ff0000",
"h c #00ff00",
"i c #ffff00",
"j c #0000ff",
"k c #ff00ff",
"l c #00ffff",
"m c #ffffff",
/* pixels */
"gggeeeeeeeeeeeee",
"ggg``eeeeeeeeeee",
"ggge`eeeeeeeeeee",
"eeee`````eeeeeee",
"eeee````````````",
"eeeeeee`ee``````",
"eeeeee`eeeeee`ee",
"eeeee`eeeeee`eee",
"eeee`eeeeee`eeee",
"eeeee`eeeeee`eee",
"eeeeee`eeeeee`ee",
"eeeeeee`ee``````",
"eee`````ee``````",
"eee``````eeeeeee",
"eeeeeeeeeeeeeeee"
};
