/* XPM */
static const char *Q4_ShowBar[] = {
/* width height num_colors chars_per_pixel */
"    16    15       16            1",
/* colors */
"` c #000000",
". c #800000",
"# c #008000",
"a c #808000",
"b c #000080",
"c c #800080",
"d c #008080",
"e c None",
"f c #808080",
"g c #ff0000",
"h c #00ff00",
"i c #ffff00",
"j c #0000ff",
"k c #ff00ff",
"l c #00ffff",
"m c #ffffff",
/* pixels */
"e``````````````e",
"e``````````````e",
"e`mmmmmmmmmmmm`e",
"e`m``````mmmmm`e",
"e`m```````mmmm`e",
"e`mm```````mmm`e",
"e`mmm```````mm`e",
"e`mmm````````m`e",
"e`mm`````````m`e",
"e`m```mm`````m`e",
"e````mmmm````m`e",
"e```mmmmmmmmmm`e",
"```````````````e",
"``eeeeeeeeeeeeee",
"`eeeeeeeeeeeeeee"
};
