/* XPM */
static char *DebugBreakPoint[] = {
/* width height num_colors chars_per_pixel */
"    16    16       16            1",
/* colors */
"` c #000000",
". c #800000",
"# c #008000",
"a c #808000",
"b c #000080",
"c c #800080",
"d c #008080",
"e c None",
"f c #808080",
"g c #ff0000",
"h c #00ff00",
"i c #ffff00",
"j c #0000ff",
"k c #ff00ff",
"l c #00ffff",
"m c #ffffff",
/* pixels */
"eeeeeee``eeeeeee",
"eeeeee``m``eeeee",
"eeeee`m`m`m`eeee",
"eeeee`m`m`m``eee",
"eeeee`m`m`m`m`ee",
"eeeee`m`m`m`m`ee",
"e```e`m`m`m`m`ee",
"e`mm``m`m`m`m`ee",
"ee`mm`mmmmmmm`ee",
"eee`mmmmmmmmm`ee",
"eee`mmmmmmmmm`ee",
"eeee`mmmmmmmm`ee",
"eeeee`mmmmmm`eee",
"eeeee````````eee",
"eeeeeeeeeeeeeeee",
"eeeeeeeeeeeeeeee"
};
