/* XPM */
static const char * Q5_ClearBreakpoints_xpm[] = {
"16 16 5 1",
" 	c None",
".	c #0000FF",
"+	c #FFFFFF",
"@	c #800000",
"#	c #808080",
"    ..          ",
"   ..+..        ",
"  .+.+.+..      ",
"  .+.+...+..    ",
"  .+.+.+.@@#.   ",
" ..+.+.+@@#+..  ",
".+@@@#.@@#.+.+. ",
".+.#@@@@#+.+.+. ",
".+++.@@@.+.+.+. ",
" .++#@@@@+++++. ",
"  .+@@#+@@++++. ",
"  .@@#++#@#+++. ",
"   @@ .++#@++.  ",
"   @# ........  ",
"   #            ",
"                "};
