/* XPM */
static char * Q5_Stepdown_xpm[] = {
"16 16 3 1",
" 	c None",
".	c #0000FF",
"+	c #808080",
" .......+       ",
"        .+      ",
"         .      ",
"     ..  .  ..  ",
"    ..   .   .. ",
"    ..   .   .. ",
"    .. ..... .. ",
"    ..  ...  .. ",
"   ..    .    ..",
"    ..       .. ",
"    ..       .. ",
"    ..       .. ",
"    ..       .. ",
"     ..     ..  ",
"                ",
"                "};
