/* XPM */
static const char * Q5_Stepout_xpm[] = {
"16 16 3 1",
" 	c None",
".	c #808080",
"+	c #0000FF",
"      .+++++.   ",
"     .+     +.  ",
"     +       +  ",
"  ++ + ++    +  ",
" ++  +  ++   +  ",
" ++  +  ++   +  ",
" ++     ++ +++++",
" ++     ++  +++ ",
"++       ++  +  ",
" ++     ++      ",
" ++     ++      ",
" ++     ++      ",
" ++     ++      ",
"  ++   ++       ",
"                ",
"                "};
