/* XPM */
static char *DebugStepdown[] = {
/* width height num_colors chars_per_pixel */
"    16    16       16            1",
/* colors */
"` c #000000",
". c #800000",
"# c #008000",
"a c #808000",
"b c #000080",
"c c #800080",
"d c #008080",
"e c None",
"f c #808080",
"g c #ff0000",
"h c #00ff00",
"i c #ffff00",
"j c #0000ff",
"k c #ff00ff",
"l c #00ffff",
"m c #ffffff",
/* pixels */
"ebbbbbbbfeeeeeee",
"eeeeeeeebfeeeeee",
"eeeeeeeeebeeeeee",
"eeeee``eebee``ee",
"eeee``eeebeee``e",
"eeee``eeebeee``e",
"eeee``ebbbbbe``e",
"eeee``eebbbee``e",
"eee``eeeebeeee``",
"eeee``eeeeeee``e",
"eeee``eeeeeee``e",
"eeee``eeeeeee``e",
"eeee``eeeeeee``e",
"eeeee``eeeee``ee",
"eeeeeeeeeeeeeeee",
"eeeeeeeeeeeeeeee"
};
