/* XPM */
static char * Q5_StepNextFunc_xpm[] = {
"16 16 3 1",
" 	c None",
".	c #808080",
"+	c #F50722",
" .++++++++++.   ",
" +          +.  ",
"             +  ",
"    ++ ++    +  ",
"   ++   ++   +  ",
"   ++   ++   +  ",
"   ++   ++ +++++",
"   ++   ++  +++ ",
"  ++     ++  +  ",
"   ++   ++      ",
"   ++   ++      ",
"   ++   ++      ",
"   ++   ++      ",
"    ++ ++       ",
"                ",
"                "};
