/* XPM */
static char *Q_Paste[] = {
/* width height num_colors chars_per_pixel */
"    16    15       16            1",
/* colors */
"` c #000000",
". c #800000",
"# c #008000",
"a c #808000",
"b c #000080",
"c c #800080",
"d c #008080",
"e c None",
"f c #808080",
"g c #ff0000",
"h c #00ff00",
"i c #ffff00",
"j c #0000ff",
"k c #ff00ff",
"l c #00ffff",
"m c #ffffff",
/* pixels */
"eeeeee````eeeeee",
"ee`````ii`````ee",
"e`faf`i``i`afa`e",
"e`af`eeeeee`af`e",
"e`fa````````fa`e",
"e`afafafafafaf`e",
"e`fafafbbbbbbb`e",
"e`afafabmmmmmbbb",
"e`fafafbmmmmmbmb",
"e`afafabmbbbmbbb",
"e`fafafbmmmmmmmb",
"e`afafabmbbbbbmb",
"ee`````bmmmmmmmb",
"eeeeeeebbbbbbbbb",
"eeeeeeeeeeeeeeee"
};
