/* XPM */
static const char * Q_Redo_xpm[] = {
"16 15 3 1",
" 	c None",
".	c #808080",
"+	c #0000FF",
"    .+++.       ",
"   +++.+++      ",
"  ++     ++     ",
" .+       ++  + ",
" ++       .++ + ",
" ++        ++++ ",
" ++         +++ ",
" ++       +++++ ",
" .+.            ",
"  ++            ",
"   ++.          ",
"    .++.        ",
"+ + +++++++++++ ",
"+ + + + +++++++ ",
"                "};
