/* XPM */
static char * WhatNext_xpm[] = {
"16 15 3 1",
" 	c None",
".	c #0000DE",
"+	c #0000FF",
"       ..++.    ",
"      .+++++.   ",
"      .+   ++.  ",
" +++        ++  ",
" +..        ++  ",
" +..       ++   ",
"         ++++   ",
"       ++.+     ",
"       +++      ",
"       ++       ",
"                ",
" +++   +++      ",
" +..   ..+      ",
" +..   ..+      ",
"                "};
