/* XPM */
static char * minitab_xpm[] = {
"30 15 2 1",
" 	c None",
".	c #000000",
"                              ",
"     ....................     ",
"    ......................    ",
"    ..                  ..    ",
"   ..                    ..   ",
"   ..                    ..   ",
"  ..                      ..  ",
" ...                      ... ",
" ..                        .. ",
"..                          ..",
"..............................",
"..............................",
"                              ",
"                              ",
"                              "};
