/* XPM */
static char *execframe[] = {
/* width height num_colors chars_per_pixel */
"    16    16       16            1",
/* colors */
"` c #000000",
". c #800000",
"# c #008000",
"a c #808000",
"b c #000080",
"c c #800080",
"d c #008080",
"e c #c0c0c0",
"f c None",
"g c #ff0000",
"h c #00ff00",
"i c #ffff00",
"j c #0000ff",
"k c #ff00ff",
"l c #00ffff",
"m c #ffffff",
/* pixels */
"mmmmgggggggmmmgm",
"mmgggggggggggggm",
"mgggmmmmmmmggggm",
"ggmmmmm``mmggggm",
"gmm``m````gggggm",
"mmm``````````mmm",
"mmmm``eeee``mmmm",
"mmm``eeeeee``mmm",
"mm```ee``ee```mm",
"mm```ee``ee```mm",
"mmm``eeeeee``mmm",
"mmmm``eeee``mmmm",
"mmm``````````mmm",
"mmm``m````m``mmm",
"mmmmmmm``mmmmmmm",
"mmmmmmmmmmmmmmmm"
};
