/* XPM */
static const char *Lava[] = {
/* width height num_colors chars_per_pixel */
"    32    32       16            1",
/* colors */
"` c #000000",
". c #800000",
"# c #008000",
"a c #808000",
"b c #000080",
"c c #800080",
"d c #008080",
"e c None",
"f c #808080",
"g c #ff0000",
"h c #00ff00",
"i c #ffff00",
"j c #0000ff",
"k c #ff00ff",
"l c #00ffff",
"m c #ffffff",
/* pixels */
"lllllllllllllmmmmmmmmmmmmmmmmmmm",
"llllllllllmmmmmmmmmmmmmmmmmmmmmm",
"lllllllllmmmmmmmmmmmmmmmmmmmllll",
"llllllllmmmmmmmmmmmmmmmmmmllllll",
"llllllllmmmmmmmmmmmmmmmlllllllll",
"lllllllllmmmmmmmmmmmmlllllllllll",
"llllllllllmmmmmmmmmlllllllllllll",
"lllllllllllmmmmmmmllllllllllllll",
"lllllllllllmmmmmmmllllllllllllll",
"llllllllll`````g``glllllllllllll",
"llllllllllggggig`gg`llllllllllll",
"llllllllllggggig`gg``lllllllllll",
"llllllllll``ggig`igg`lllllllllll",
"llllllllll`gggggg``g`lllllllllll",
"lllllllll```giig`g`g```lllllllll",
"lllllllll```gigggiig```lllllllll",
"llllllll```ggiggggigg```llllllll",
"llllllll```gigggggiig````lllllll",
"llllll`````giggggggiigg``lllllll",
"llll```````gigg```gggig````lllll",
"ll````````ggigg````ggiig````llll",
"```````````gig`````ggiig````llll",
"`````````g`gig``````giigg````lll",
"``````````igggg`````giiiig````ll",
"`````````giggg``````g``iii````ll",
"````````ggigg```````iggigii````l",
"```````ggigg````````ig`iigig````",
"``````giiig``g``````i`ggiiiig```",
"````ggigi```````````g`gggiiig```",
"```gggiiiggg````````giiggggggg``",
"``ggggiggg`gg````gggg`g`gggiii``",
"``g`ggiiggg`g````ggggggggg`iig``"
};
