/* XPM */
static const char *bitmap2[] = {
/* width height num_colors chars_per_pixel */
"    26    16       16            1",
/* colors */
"` c #000000",
". c #800000",
"# c #008000",
"a c #808000",
"b c #000080",
"c c #800080",
"d c #008080",
"e c None",
"f c #808080",
"g c #ff0000",
"h c #00ff00",
"i c #ffff00",
"j c #0000ff",
"k c #ff00ff",
"l c #00ffff",
"m c #ffffff",
/* pixels */
"mmmmmmmmmmmmmmmmmmmmmmmmmm",
"mmmmmmmmmmmmmmmmmmmmmmmmmm",
"mmm``mmmmmmmm``mmmmmmmmmmm",
"mm````mmmmmm````mmmmmmmmmm",
"mm`mm`mmmmmm`mm`mmmmmmmmmm",
"mm`mmmmmmmmmmmm`mmmmmmmmmm",
"mm`mmmmmmmmmmmm`mmmmmmmmmm",
"m`mmmmmmmmmmmmmm`mmmmmmmmm",
"mm`mm``m``m``mm`m````````m",
"mm`mm``m``m``mm`m````````m",
"mm`mmmmmmmmmmmm`mm``````mm",
"mm`mm`mmmmmm`mm`mmm````mmm",
"mm````mmmmmm````mmmm``mmmm",
"mmm``mmmmmmmm``mmmmmmmmmmm",
"mmmmmmmmmmmmmmmmmmmmmmmmmm",
"mmmmmmmmmmmmmmmmmmmmmmmmmm"
};
