/* XPM */
static const char *bmNewFunc[] = {
/* width height num_colors chars_per_pixel */
"    18    16       16            1",
/* colors */
"` c #000000",
". c #800000",
"# c #008000",
"a c #808000",
"b c #000080",
"c c #800080",
"d c #008080",
"e c None",
"f c #808080",
"g c #ff0000",
"h c #00ff00",
"i c #ffff00",
"j c #0000ff",
"k c #ff00ff",
"l c #00ffff",
"m c #ffffff",
/* pixels */
"``````````````````",
"``````````````````",
"``imimiim```fmmm``",
"``imimim``f`f`mm``",
"``miiimm`ffm``mm``",
"``miiiim``imf`mm``",
"``miiimm``mmmmmm``",
"``iiimi`````mmmm``",
"``imii``````mmmm``",
"``mmiimm``mmmmmm``",
"``mmiimm``mmmmmm``",
"``mmiimm``mmmmmm``",
"``mmmmmm``mmmmmm``",
"``mmmmmmmmmmmmmm``",
"``````````````````",
"``````````````````"
};
