/* XPM */
static char * Q5_formParmNames_xpm[] = {
"16 15 3 1",
" 	c None",
".	c #0000FF",
"+	c #7D7D89",
"                ",
"                ",
"                ",
"....    ..    ..",
".....   ..    ..",
"..  .+.. .    . ",
"..  .+.. ..  .. ",
".. ..    ..  .. ",
"....  ..  .  .  ",
"...   ..  +..+  ",
"..         ..   ",
"..              ",
"..              ",
"                ",
"                "};
