/* XPM */
static char * Q5_qualifiedNames_xpm[] = {
"16 15 2 1",
" 	c None",
".	c #0000FF",
"                ",
"                ",
"                ",
"     ... ...    ",
"     ... ...    ",
"     ... ...    ",
"                ",
"                ",
"     ... ...    ",
"     ... ...    ",
"     ... ...    ",
"                ",
"                ",
"                ",
"                "};
