/* XPM */
static const char * Q6_opaque_xpm[] = {
"16 15 2 1",
" 	c None",
".	c #0000FF",
"                ",
"                ",
"   .        .   ",
"  ..        ..  ",
"  .          .  ",
" .. ..    .. .. ",
" .   ..  ..   . ",
" .    ....    . ",
" .     ..     . ",
" .    ....    . ",
" ..  ..  ..  .. ",
"  . ..    .. .  ",
"  ..        ..  ",
"   .        .   ",
"                "};
