/* XPM */
static char *q6_staticcall_xpm[] = {
"16 15 2 1",
"# c #0000FF",
"  c None",
"                ",
"                ",
"        ###     ",
"       ####     ",
"       ##       ",
"      ####      ",
"      ####      ",
"       ##       ",
"       ##       ",
"       ##       ",
"       ##       ",
"       ##       ",
"       ##       ",
"                ",
"                "};
