/* XPM */
static const char * PX_debugTab[] = {
"16 15 4 1",
" 	c None",
".	c #F50722",
"+	c #000000",
"@	c #0C0001",
"              ..",
" ++++   +++  .. ",
" +  ++  +++ ..  ",
"     ++++++..   ",
"++++ ++@@@..    ",
"+   ++@@@..+++  ",
"    +@@@..@+++  ",
"+++++@...@@+++  ",
"+  +@...@@@+    ",
"   +...@@@+++@@ ",
"   ..@@@@++   @ ",
"  ..+@++++++  @ ",
" .. +++++  +    ",
"..      +  ++   ",
".      ++       "};
