/* XPM */
static char *PX_ensure[] = {
"21 15 3 1",
"s c #000000",
"  c #FFFFFF",
"# c None",
"      sss       #####",
"      sss       #####",
"      sss       #####",
"      sss       #####",
"      sss       #####",
"      sss       #####",
"      sss       #####",
"      sss       #####",
"      sss       #####",
"      sss       #####",
"      sss       #####",
"                #####",
"      sss       #####",
"      sss       #####",
"      sss       #####"};
