/* XPM */
static const char *PX_form[] = {
/* width height num_colors chars_per_pixel */
"    21    15        17             1",
/* colors */
"` c #000000",
". c #800000",
"# c #008000",
"a c #808000",
"b c #000080",
"c c #800080",
"d c #008080",
"e c #c0c0c0",
"f c #808080",
"g c #ff0000",
"h c #00ff00",
"i c #ffff00",
"j c #0000ff",
"k c #ff00ff",
"l c #00ffff",
"m c #ffffff",
"n c None",
/* pixels */
"ee````````````eennnnn",
"e``````````````ennnnn",
"``mmmmmmmmmmmm``nnnnn",
"``m``m``m```mm``nnnnn",
"``mmmmmmmmmmmm``nnnnn",
"``m```m`m````m``nnnnn",
"``mmmmmmmmmmmm``nnnnn",
"``m```mmm````m``nnnnn",
"``mmmmmmmmmmmm``nnnnn",
"``m````mm````m``nnnnn",
"``mmmmmmmmmmmm``nnnnn",
"````````````````nnnnn",
"ee````````````eennnnn",
"eee``````````eeennnnn",
"e``````````````ennnnn"
};
