/* XPM */
static const char *PX_invariant[] = {
"21 15 6 1",
"  c #FFFFFFFFFFFF",
"a c #BFBFBFBFBFBF",
"b c #7F7F7F7F7F7F",
"c c #FFFF00000000",
"d c #000000000000",
"e c None",
"                eeeee",
"                eeeee",
"           ccc  eeeee",
"          ccc   eeeee",
"   dddb   ccc ddeeeee",
"  ddddd  ccc  ddeeeee",
" ddaaaddccc  ddbeeeee",
"add   dccc   ddbeeeee",
"ddb   ccc   ddd eeeee",
"dd   cccb  dddb eeeee",
"db  cccddddddd  eeeee",
"ba  cccdddddd   eeeee",
"   ccc   bbb    eeeee",
"  ccc           eeeee",
"                eeeee"};
